{"title":"The Day After (1983)","uid":9364490,"size":835207792,"categoryP":"video","categoryS":"movies","magnet":"?xt=urn:btih:9dd42232ab075b0ed89fd35ff1b8ae29e3b3a3a6&amp;dn=The+Day+After+%281983%29&amp;tr=udp%3A%2F%2Ftracker.openbittorrent.com%3A80&amp;tr=udp%3A%2F%2Fopen.demonii.com%3A1337&amp;tr=udp%3A%2F%2Ftracker.coppersurfer.tk%3A6969&amp;tr=udp%3A%2F%2Fexodus.desync.com%3A6969","seeders":0,"leechers":0,"uploader":"7","files":-1,"time":1387384843,"description":"The Day After (1983)\n\nPlot\nA graphic, disturbing film about the effects of a devastating nuclear holocaust\non small-town residents of eastern Kansas.  \n\nCast\nJason Robards ... Dr. Russell Oakes\nJoBeth Williams ... Nurse Nancy Bauer\nStephen Klein ...  Steven Guttenberg\nJohn Cullum ... Jim Dahlberg\nJohn Lithgow ... Joe Huxley\nBibi Besch ... Eve Dahlberg\nLori Lethin ... Denise Dahlberg\nAmy Madigan ... Alison Ransom\nJeff East Jeff East ... Bruce Gallatin\nGeorgann Johnson ... Helen Oakes\nWilliam Allen Young  ... Airman Billy McCoy\nCalvin Jung ... Dr. Sam Hachiya\nLin McCarthy ... Dr. Austin\nDennis Lipscomb ... Reverend Walker\nClayton Day ... Dennis Hendry\n\nInfomation            \n   Release Date .....: 11/20/1983            \n   Theater Date .....: Unknown            \n   DVD RLS Date .....: Unknown              \n   DVD Runtime ......: __:1_:27                      \n   Language .........: English                                                            \n   IMDb URL..........: http://www.imdb.com/title/tt0085404/              \n   IMDB Rating ......: 6.9              \n   Video Codec ......: XVID\n   Resolution .......: W576 h320 16:9\n   Audio Codec ......: MP3\n   Audio Bitrate ....: 128Kbps\n   Subtitles ........: N/A\n   File Size.........: 835201 Kb  \n &lt;a href=&quot;\nhttp://lookpic.com/O/i2/720/due9xCHx.jpeg&quot; rel=&quot;nofollow&quot; target=&quot;_NEW&quot;&gt;\nhttp://lookpic.com/O/i2/720/due9xCHx.jpeg&lt;/a&gt;\n\nGeneral\nComplete name                    : The_Day_After_1983.avi\nFormat                           : AVI\nFormat/Info                      : Audio Video Interleave\nFile size                        : 797 MiB\nDuration                         : 2h 1mn\nOverall bit rate                 : 914 Kbps\n\nVideo\nID                               : 0\nFormat                           : MPEG-4 Visual\nFormat profile                   : Advanced Simple@L5\nFormat settings, BVOP            : Yes\nFormat settings, QPel            : No\nFormat settings, GMC             : No warppoints\nFormat settings, Matrix          : Default (MPEG)\nMuxing mode                      : Packed bitstream\nCodec ID                         : XVID\nCodec ID/Hint                    : XviD\nDuration                         : 2h 1mn\nBit rate                         : 777 Kbps\nWidth                            : 576 pixels\nHeight                           : 320 pixels\nDisplay aspect ratio             : 16:9\nFrame rate                       : 25.000 fps\nColor space                      : YUV\nChroma subsampling               : 4:2:0\nBit depth                        : 8 bits\nScan type                        : Progressive\nBits/(Pixel*Frame)               : 0.169\nStream size                      : 677 MiB (85%)\nWriting library                  : XviD 1.2.0.dev47 (UTC 2006-11-01)\n\nAudio\nID                               : 1\nFormat                           : MPEG Audio\nFormat version                   : Version 1\nFormat profile                   : Layer 3\nMode                             : Joint stereo\nMode extension                   : MS Stereo\nCodec ID                         : 55\nCodec ID/Hint                    : MP3\nDuration                         : 2h 1mn\nBit rate mode                    : Constant\nBit rate                         : 128 Kbps\nChannel(s)                       : 2 channels\nSampling rate                    : 48.0 KHz\nStream size                      : 112 MiB (14%)\nAlignment                        : Aligned on interleaves\nInterleave, duration             : 40 ms (1.00 video frame)\nInterleave, preload duration     : 504 ms\nWriting library                  : LAME3.97b\nEncoding settings                : -m j -V 4 -q 2 -lowpass 17 -b 128\n","torrent":{"xt":"urn:btih:9dd42232ab075b0ed89fd35ff1b8ae29e3b3a3a6","amp;dn":"The+Day+After+%281983%29","amp;tr":["udp%3A%2F%2Ftracker.openbittorrent.com%3A80","udp%3A%2F%2Fopen.demonii.com%3A1337","udp%3A%2F%2Ftracker.coppersurfer.tk%3A6969","udp%3A%2F%2Fexodus.desync.com%3A6969"],"infoHash":"9dd42232ab075b0ed89fd35ff1b8ae29e3b3a3a6","infoHashBuffer":{"type":"Buffer","data":[157,212,34,50,171,7,91,14,216,159,211,95,241,184,174,41,227,179,163,166]},"announce":[],"urlList":[]}}